<svg width="192" height="192" viewBox="0 0 192 192" fill="none" xmlns="http://www.w3.org/2000/svg">
<g clip-path="url(#clip0_1_5)">
<rect width="192" height="192" fill="white"/>
<rect width="192" height="192" fill="#0369A1"/>
<path d="M94.6 56.625C92.2725 56.625 90.4 58.5059 90.4 60.8438C90.4 63.1816 92.2725 65.0625 94.6 65.0625H99.0975L105.152 76.3125H79.0075L74.2125 69.6328C73.425 68.5254 72.1475 67.875 70.8 67.875H61C58.6725 67.875 56.8 69.7559 56.8 72.0938C56.8 74.4316 58.6725 76.3125 61 76.3125H68.6475L72.515 81.709L67.86 91.043C66.11 90.6035 64.2725 90.375 62.4 90.375C50.0275 90.375 40 100.447 40 112.875C40 125.303 50.0275 135.375 62.4 135.375C73.8275 135.375 83.2425 126.779 84.625 115.688H93.2C94.6875 115.688 96.0525 114.896 96.8225 113.613L111.662 88.3887L115.46 95.4375C110.42 99.5684 107.2 105.844 107.2 112.875C107.2 125.303 117.227 135.375 129.6 135.375C141.972 135.375 152 125.303 152 112.875C152 100.447 141.972 90.375 129.6 90.375C127.237 90.375 124.962 90.7441 122.827 91.4297L105.695 59.5781C104.715 57.75 102.825 56.625 100.76 56.625H94.6ZM120.255 104.385L125.907 114.879C127.01 116.936 129.565 117.691 131.595 116.584C133.625 115.477 134.395 112.91 133.292 110.871L127.64 100.377C128.27 100.271 128.935 100.219 129.6 100.219C136.565 100.219 142.2 105.879 142.2 112.875C142.2 119.871 136.565 125.531 129.6 125.531C122.635 125.531 117 119.871 117 112.875C117 109.605 118.225 106.635 120.255 104.385V104.385ZM63.31 115.688H74.685C73.4075 121.33 68.385 125.531 62.4 125.531C55.435 125.531 49.8 119.871 49.8 112.875C49.8 105.879 55.435 100.219 62.4 100.219C62.6975 100.219 62.995 100.236 63.2925 100.254L59.0575 108.779C57.4825 111.961 59.775 115.705 63.31 115.705V115.688ZM69.2075 107.25L78.08 89.4434L90.8375 107.232L90.82 107.25H69.19H69.2075ZM85.0625 84.75H104.032L95.475 99.3047L85.045 84.75H85.0625Z" fill="white"/>
</g>
<defs>
<clipPath id="clip0_1_5">
<rect width="192" height="192" fill="white"/>
</clipPath>
</defs>
</svg>
